<svg width="20" height="19" viewBox="0 0 20 19" fill="none" xmlns="http://www.w3.org/2000/svg">
    <path
        d="M10.93 1.88995C10.6405 1.45006 10.2514 1.08462 9.79421 0.823282C8.53754 0.102449 6.91837 0.229116 5.42421 1.06578C2.65004 2.61995 0.833374 5.54162 0.833374 8.99995C0.833374 13.6166 4.17504 17.3441 8.53921 18.0499C9.01587 18.1266 9.50337 18.1666 10 18.1666C11.211 18.1709 12.4107 17.9343 13.5294 17.4708C14.6482 17.0072 15.6635 16.3258 16.5165 15.4662C17.3695 14.6066 18.0431 13.586 18.498 12.4638C18.953 11.3415 19.1803 10.14 19.1667 8.92912C19.1475 7.31912 18.5017 5.34328 17.4809 3.76412C16.4642 2.19078 14.9009 0.757449 12.9584 0.775782C12.01 0.777449 11.3625 1.29912 10.93 1.89078V1.88995ZM16.4759 5.34412C16.1278 5.28814 15.7739 5.27889 15.4234 5.31662L14.4567 3.69162L13.025 4.54162L13.7684 5.79162C13.4574 5.93797 13.1603 6.1123 12.8809 6.31245C12.876 6.29631 12.871 6.2802 12.8659 6.26412C12.6434 5.58912 12.2134 5.03495 11.64 4.48412L11.6434 4.46745C11.7009 4.19828 11.7925 3.85078 11.93 3.51328C12.2409 2.74995 12.6017 2.44078 12.9634 2.44078H12.9725C14.0484 2.42912 15.1692 3.25495 16.0817 4.66662C16.2234 4.88578 16.355 5.11162 16.4767 5.34328L16.4759 5.34412ZM11.3417 7.84162C11.0667 7.84828 10.7842 7.87912 10.5084 7.93912C10.2834 7.5626 9.98193 7.23752 9.62337 6.98495C8.96504 6.52245 8.06337 6.29328 7.08837 6.65745C6.99904 6.60598 6.90903 6.5557 6.81837 6.50662L9.51254 3.86578L8.34587 2.67578L5.15004 5.80828C4.47504 5.61245 3.84421 5.54245 3.27754 5.62078C3.92966 4.3118 4.96235 3.23059 6.24004 2.51912C7.37671 1.88245 8.35421 1.91745 8.96587 2.26828C9.54921 2.60245 10.0334 3.36078 9.91171 4.71578L9.87421 5.13495L10.1892 5.41412C10.8742 6.01995 11.1592 6.41162 11.2825 6.78578C11.3692 7.04828 11.3975 7.36578 11.3417 7.84162ZM9.00004 8.67912C8.28837 9.27495 7.81087 10.1108 7.53337 11.0141L5.05504 8.29328L3.82254 9.41662L7.22921 13.1566C7.22504 14.1499 7.35254 15.1666 7.53754 16.0858C6.06261 15.5794 4.78345 14.6235 3.87988 13.3525C2.97631 12.0816 2.49375 10.5594 2.50004 8.99995C2.50004 8.13328 2.74087 7.66078 3.02421 7.45412C3.29171 7.25745 3.87921 7.09662 5.08254 7.54078C5.51754 7.70162 6.02087 7.94828 6.59671 8.30662L7.01504 8.56662L7.44504 8.32495C7.96421 8.03328 8.36087 8.13662 8.66504 8.34995C8.79837 8.44328 8.91254 8.55995 9.00004 8.67912ZM10.4709 16.4849L16.5475 9.78745L15.3134 8.66745L12.87 11.3599L12.8759 10.5149L11.2092 10.5033L11.19 13.2116L9.12087 15.4924C8.96421 14.6416 8.87087 13.7274 8.90087 12.8699C8.95421 11.4074 9.53837 10.2058 10.4025 9.72995C10.7609 9.53245 11.3934 9.45495 11.8934 9.54328L12.635 9.67245L12.8392 8.94828C12.9459 8.57078 13.2284 8.16662 13.67 7.80662C14.1182 7.44443 14.6396 7.18398 15.1984 7.04328C15.8659 6.87995 16.435 6.96495 16.81 7.22328C17.1375 7.44828 17.4667 7.90828 17.4975 8.85161V8.86662L17.5 8.99995C17.5084 10.91 16.7843 12.7506 15.4768 14.1429C14.1692 15.5353 12.3777 16.3734 10.4709 16.4849Z"
        fill="#6D8434" />
</svg>