<svg xmlns="http://www.w3.org/2000/svg" aria-hidden="true" style="position:absolute;width:0;height:0;overflow:hidden">
    <defs>
        <symbol id="cart" viewBox="0 0 32 32">
            <path
                d="M4.801 1.6a1.6 1.6 0 0 0 0 3.2h1.952l.488 1.955.016.067L9.43 15.51l-1.429 1.427c-2.016 2.016-.589 5.462 2.262 5.462h13.738a1.6 1.6 0 0 0 0-3.2H10.263l1.6-1.6h10.538a1.602 1.602 0 0 0 1.431-.884l4.8-9.6a1.602 1.602 0 0 0-1.43-2.315H10.05l-.496-1.989a1.601 1.601 0 0 0-1.552-1.212h-3.2zm20.8 24.8a2.4 2.4 0 1 1-4.799 0 2.4 2.4 0 0 1 4.799 0zm-15.2 2.4a2.4 2.4 0 1 0 0-4.799 2.4 2.4 0 0 0 0 4.799z" />
        </symbol>
        <symbol id="cabbage" viewBox="0 0 32 32">
            <path
                d="M17.487 4.624a5.36 5.36 0 0 0-1.817-1.707c-2.011-1.153-4.601-.951-6.992.388C4.239 5.792 1.333 10.466 1.333 16c0 7.387 5.347 13.351 12.329 14.48a14.67 14.67 0 0 0 2.337.187 14.625 14.625 0 0 0 10.426-4.32 14.613 14.613 0 0 0 4.24-10.46c-.031-2.576-1.064-5.737-2.697-8.264-1.627-2.517-4.128-4.811-7.236-4.781-1.517.003-2.553.837-3.245 1.784v-.001zm8.873 5.526a6.332 6.332 0 0 0-1.684-.044l-1.547-2.6-2.291 1.36 1.189 2a9.055 9.055 0 0 0-1.42.833 7.286 7.286 0 0 0-.024-.077c-.356-1.08-1.044-1.967-1.961-2.848l.005-.027c.092-.431.239-.987.459-1.527.497-1.221 1.075-1.716 1.653-1.716h.015c1.721-.019 3.515 1.303 4.975 3.561.227.351.437.712.632 1.083l-.001.001zm-8.215 3.996c-.44.011-.892.06-1.333.156a5.013 5.013 0 0 0-1.416-1.527c-1.053-.74-2.496-1.107-4.056-.524a18.259 18.259 0 0 0-.432-.241l4.311-4.225-1.867-1.904-5.113 5.012c-1.08-.313-2.089-.425-2.996-.3a11.607 11.607 0 0 1 4.74-4.963c1.819-1.019 3.383-.963 4.361-.401.933.535 1.708 1.748 1.513 3.916l-.06.671.504.447c1.096.969 1.552 1.596 1.749 2.195.139.42.184.928.095 1.689zm-3.746 1.34c-1.139.953-1.903 2.291-2.347 3.736l-3.965-4.353-1.972 1.797 5.451 5.984c-.007 1.589.197 3.216.493 4.687A11.933 11.933 0 0 1 3.999 16c0-1.387.385-2.143.839-2.473.428-.315 1.368-.572 3.293.139.696.257 1.501.652 2.423 1.225l.669.416.688-.387c.831-.467 1.465-.301 1.952.04.213.149.396.336.536.527zm2.353 12.49 9.723-10.716-1.975-1.792-3.909 4.308.009-1.352-2.667-.019-.031 4.333-3.311 3.649c-.251-1.361-.4-2.824-.352-4.196.085-2.34 1.02-4.263 2.403-5.024.573-.316 1.585-.44 2.385-.299l1.187.207.327-1.159c.171-.604.623-1.251 1.329-1.827a6.365 6.365 0 0 1 2.445-1.221c1.068-.261 1.979-.125 2.579.288.524.36 1.051 1.096 1.1 2.605v.024l.004.213a11.947 11.947 0 0 1-11.246 11.976z" />
        </symbol>
        <symbol id="minus" viewBox="0 0 32 32">
            <path stroke-linecap="round" stroke="#000000" stroke-linejoin="round" stroke-width="3.429" d="M6.67 16h18.667" />
        </symbol>
        <symbol id="plus" viewBox="0 0 32 32">
            <path stroke-linecap="round" stroke="#000000" stroke-linejoin="round" stroke-width="3.429"
                d="M16 6.667v18.667M6.67 16h18.667" />
        </symbol>
        <symbol id="close" viewBox="0 0 32 32">
            <path
                d="M25 9.093 22.907 7 16 13.907 9.093 7 7 9.093 13.907 16 7 22.907 9.093 25 16 18.093 22.907 25 25 22.907 18.093 16 25 9.093z" />
        </symbol>
        <symbol id="down" viewBox="0 0 32 32">
            <path stroke-linecap="round" stroke-linejoin="round" stroke-width="3.2" d="m8 12 8 8 8-8" />
        </symbol>
        <symbol id="search" viewBox="0 0 32 32">
            <path
                d="M20.667 18.667h-1.053l-.373-.36a8.625 8.625 0 0 0 2.093-5.64 8.668 8.668 0 0 0-5.35-8.007A8.66 8.66 0 0 0 6.54 6.539a8.67 8.67 0 0 0-1.879 9.444 8.671 8.671 0 0 0 8.007 5.35 8.63 8.63 0 0 0 5.64-2.093l.36.373v1.053l6.667 6.653 1.987-1.987-6.653-6.667zm-8 0c-3.32 0-6-2.68-6-6s2.68-6 6-6 6 2.68 6 6-2.68 6-6 6z" />
        </symbol>
        <symbol id="check" viewBox="0 0 32 32">
            <path stroke-linecap="round" stroke-linejoin="round" stroke-width="3.556"
                d="M26.667 8 12 22.667 5.333 16" />
        </symbol>
        <symbol id="facebook" viewBox="0 0 32 32">
            <path
                d="M19.519 4.64h.96v3.6h-1.2c-.48 0-.96 0-1.2.24s-.24.48-.24 1.04v1.28h2.64v3.04h-2.64v13.2h-4.08V13.76h-2.16v-3.04h2.16V9.68c0-1.76.24-3.04.72-3.6.72-1.04 2.16-1.52 4.32-1.52.24.08.48.08.72.08z" />
        </symbol>
        <symbol id="instagram" viewBox="0 0 32 32">
            <path
                d="M28.718 10.756a9.264 9.264 0 0 0-.596-3.145 6.547 6.547 0 0 0-3.743-3.737 9.42 9.42 0 0 0-3.108-.596c-1.367-.061-1.801-.078-5.273-.078s-3.916 0-5.274.078a9.418 9.418 0 0 0-3.106.596 6.541 6.541 0 0 0-3.743 3.737 9.288 9.288 0 0 0-.596 3.101c-.061 1.367-.08 1.8-.08 5.265s0 3.909.08 5.265a9.335 9.335 0 0 0 .596 3.104 6.548 6.548 0 0 0 3.744 3.735 9.37 9.37 0 0 0 3.106.639c1.369.061 1.803.079 5.274.079s3.917 0 5.274-.079a9.362 9.362 0 0 0 3.108-.595 6.555 6.555 0 0 0 3.743-3.737 9.346 9.346 0 0 0 .596-3.104c.061-1.365.08-1.798.08-5.265-.003-3.466-.003-3.906-.082-5.264zM15.991 22.531c-3.631 0-6.572-2.936-6.572-6.561s2.941-6.561 6.572-6.561c3.628 0 6.572 2.936 6.572 6.561s-2.944 6.561-6.572 6.561zm6.833-11.835a1.53 1.53 0 1 1 0-3.06 1.53 1.53 0 1 1 0 3.06z" />
            <path d="M15.991 19.976a4.004 4.004 0 1 0 0-8.009 4.004 4.004 0 0 0 0 8.009z" />
        </symbol>
        <symbol id="youtube" viewBox="0 0 32 32">
            <path
                d="M24.241 6c-1.36-.08-4.16-.16-8.4-.16h-.56c-4.08 0-6.8.08-8.16.24-1.84.16-3.12.64-3.84 1.28-.64.56-1.12 1.6-1.28 2.96-.08.88-.16 2.72-.16 5.52v.4c0 2.64.08 4.48.24 5.36.24 1.28.64 2.24 1.44 2.8.8.64 2.16 1.04 4.08 1.2 1.36.08 4.16.16 8.4.16h.56c4.08 0 6.8-.08 8.16-.24 1.84-.16 3.12-.64 3.84-1.28.64-.56 1.12-1.6 1.28-2.96.08-.88.16-2.72.16-5.52v-.4c0-2.64-.08-4.48-.24-5.36-.24-1.28-.64-2.24-1.44-2.8-.8-.64-2.16-1.04-4.08-1.2zm-3.12 9.84-8.8 5.28V10.56l8.8 5.28z" />
        </symbol>
        <symbol id="double_left" viewBox="0 0 32 32">
            <path stroke-linecap="round" stroke-linejoin="round" stroke-width="2"
                d="M16 21.333 10.667 16 16 10.667M21.333 21.333 16 16l5.333-5.333" />
        </symbol>
        <symbol id="left" viewBox="0 0 32 32">
            <path stroke-linecap="round" stroke-linejoin="round" stroke-width="2"
                d="M18.667 21.333 13.334 16l5.333-5.333" />
        </symbol>
        <symbol id="double_right" viewBox="0 0 32 32">
            <path stroke-linecap="round" stroke-linejoin="round" stroke-width="2"
                d="M16 21.333 21.333 16 16 10.667M10.667 21.333 16 16l-5.333-5.333" />
        </symbol>
        <symbol id="right" viewBox="0 0 32 32">
            <path stroke-linecap="round" stroke-linejoin="round" stroke-width="2"
                d="M13.333 21.333 18.666 16l-5.333-5.333" />
        </symbol>
        <symbol id="discount" viewBox="0 0 60 60">
            <circle cx="30" cy="30" r="30" fill="#6D8434" />
            <path fill="#FAFAFA"
                d="M50.525 39.117 50.09 40.3l-8.051-2.966.436-1.182.665.244.008-.022c-.282-.45-.513-1.174-.185-2.063.545-1.475 2.097-2.144 3.988-1.447 1.892.697 2.637 2.213 2.093 3.687-.329.89-.953 1.299-1.505 1.441l-.008.023 2.995 1.103Zm-6.67-4.248c-.357.968.223 1.86 1.495 2.328 1.283.473 2.292.167 2.65-.8.382-1.037-.36-1.937-1.486-2.352-1.126-.414-2.276-.211-2.658.824ZM47.05 42.242c.206-.28.612-.43.961-.174.349.255.32.68.114.96-.22.3-.61.446-.958.191-.35-.255-.337-.677-.117-.977Zm-.464-1.112-.745 1.016-4.951-3.618.745-1.016 4.95 3.618ZM40.929 43.692c-1.039.514-2.145 1.097-3.077-.031-.75-.907-.438-2.111.711-3.057 1.529-1.258 2.775-1.088 3.647-.127l-.945.778c-.466-.47-1.048-.722-2.049.101-.676.557-.688 1.127-.443 1.422.489.593 1.092.174 1.925-.232.895-.442 2.037-1.133 2.924-.06.642.777.468 1.961-.717 2.937-1.288 1.06-2.473.87-3.218.1l.945-.778c.37.317.87.544 1.629-.082.583-.48.715-.961.44-1.294-.398-.481-.956-.084-1.772.323ZM34.408 47.179c.247.575.866 1.163 1.889.816 1.17-.398 1.329-1.567.957-2.657-.373-1.09-1.202-1.924-2.384-1.522-1.023.347-1.157 1.178-.982 1.841l-1.193.405c-.367-1.37.33-2.71 1.841-3.223 1.739-.59 3.29.277 3.91 2.094.621 1.817-.077 3.448-1.804 4.035-1.512.513-2.83-.117-3.427-1.384l1.193-.405ZM29.262 43.584c1.916.118 2.997 1.518 2.882 3.423-.116 1.904-1.359 3.163-3.275 3.046-1.917-.117-2.998-1.518-2.882-3.423.116-1.904 1.358-3.163 3.275-3.046Zm-.063 1.03c-1.198-.073-1.878.836-1.954 2.093-.077 1.27.489 2.242 1.686 2.316 1.198.073 1.878-.824 1.955-2.093.076-1.258-.49-2.242-1.687-2.315ZM20.195 47.39l-1.134-.55 2.683-5.514 1.133.55-.346.712.021.01c.502-.29 1.284-.444 2.234.017 1.026.498 1.547 1.484.933 2.747l-1.854 3.81-1.144-.556 1.696-3.486c.362-.744.28-1.37-.498-1.748-.874-.424-1.693-.168-2.092.652l-1.632 3.356ZM14.688 43.044c-.76-.85-.869-1.96.178-2.894l3.16-2.821.85.947-2.892 2.581c-.618.552-.78 1.163-.203 1.806.649.724 1.504.797 2.184.19l2.785-2.486.84.939-4.574 4.083-.84-.938.59-.528-.016-.017c-.574.078-1.357-.076-2.062-.862ZM12.09 36.33l.474 1.05 3.031-1.365c.635-.286.573-.627.193-1.35l.941-.424c.159.205.305.442.444.748.415.918.227 1.608-.955 2.14l-3.13 1.41.367.808-.941.424-.366-.81-1.762.794-.524-1.16 1.761-.792-.474-1.05.94-.423ZM8.426 23.714l.274-1.23 8.375 1.863-.273 1.23-.692-.154-.005.024c.34.407.666 1.095.46 2.02-.341 1.534-1.79 2.405-3.757 1.967-1.968-.438-2.91-1.84-2.568-3.374.206-.925.77-1.415 1.297-1.63l.005-.023-3.116-.693Zm7.179 3.318c.224-1.007-.47-1.813-1.793-2.108-1.335-.297-2.294.142-2.518 1.15-.24 1.077.616 1.87 1.788 2.13 1.171.26 2.283-.094 2.523-1.172ZM11.443 20.153c-.167.305-.55.507-.93.301-.38-.206-.408-.63-.241-.936.178-.327.544-.524.924-.318.38.206.424.626.247.953Zm.609 1.04.602-1.107 5.39 2.923-.602 1.107-5.39-2.923ZM17.327 17.876c.963-.645 1.982-1.369 3.055-.372.861.8.71 2.036-.305 3.124-1.35 1.448-2.609 1.442-3.6.603l.836-.895c.524.406 1.134.58 2.018-.368.597-.641.535-1.207.253-1.469-.562-.522-1.105-.028-1.878.483-.83.556-1.87 1.39-2.89.442-.739-.686-.722-1.883.326-3.006 1.138-1.22 2.337-1.186 3.177-.52l-.835.895c-.409-.265-.933-.425-1.604.295-.516.552-.583 1.047-.267 1.34.457.426.959-.042 1.714-.552Z" />
            <path fill="#FAFAFA"
                d="M23.244 13.593c-.323-.536-1.016-1.035-1.982-.552-1.106.552-1.105 1.732-.588 2.761.517 1.03 1.452 1.743 2.568 1.186.966-.483.987-1.325.723-1.957l1.128-.564c.549 1.309.04 2.73-1.388 3.443-1.642.82-3.297.171-4.158-1.545-.861-1.716-.39-3.426 1.241-4.241 1.428-.713 2.82-.268 3.583.906l-1.127.563ZM28.822 16.435c-1.915.14-3.174-1.104-3.314-3.007-.14-1.903.923-3.316 2.838-3.455 1.915-.14 3.173 1.104 3.314 3.007.14 1.903-.923 3.316-2.838 3.455Zm-.076-1.029c1.197-.087 1.75-1.078 1.657-2.335-.093-1.268-.785-2.156-1.981-2.069-1.197.087-1.75 1.066-1.657 2.334.092 1.257.784 2.157 1.981 2.07ZM37.349 11.448l1.196.394-1.925 5.822-1.196-.394.248-.752-.022-.008c-.459.354-1.213.611-2.216.28-1.083-.357-1.73-1.266-1.29-2.599l1.33-4.022 1.208.399-1.217 3.68c-.26.786-.095 1.397.726 1.667.923.305 1.7-.058 1.986-.924l1.172-3.543ZM43.393 15.008c.866.742 1.12 1.828.204 2.892l-2.763 3.212-.965-.828 2.527-2.938c.54-.628.62-1.255-.036-1.817-.738-.633-1.595-.593-2.19.098l-2.434 2.83-.956-.82 3.998-4.649.957.82-.517.6.019.016c.559-.153 1.355-.103 2.156.584ZM46.845 21.267l-.611-.976-2.82 1.76c-.591.368-.484.697-.01 1.363l-.875.546a3.652 3.652 0 0 1-.54-.68c-.536-.855-.442-1.564.657-2.25l2.912-1.817-.472-.753.876-.546.471.753 1.64-1.023.675 1.078-1.639 1.022.612.977-.876.546ZM32.918 27.667c-5.25 1.166-6.475 4.765-7.688 7.781l1.102.385.554-1.341c.28.099.572.175.782.175 6.417 0 8.167-9.917 8.167-9.917-.584 1.167-4.667 1.313-7.584 1.896-2.916.583-4.083 3.062-4.083 4.229 0 1.167 1.02 2.188 1.02 2.188 1.897-5.396 7.73-5.396 7.73-5.396Z" />
        </symbol>
    </defs>
</svg>