<svg aria-hidden="true" style="position: absolute; width: 0; height: 0; overflow: hidden;" version="1.1" xmlns="http://www.w3.org/2000/svg" xmlns:xlink="http://www.w3.org/1999/xlink">
<defs>
<symbol id="icon-check_arrow" viewBox="0 0 32 32">
<path stroke-linejoin="round" stroke-linecap="round" stroke-miterlimit="4" stroke-width="3.5556" d="M26.667 8l-14.667 14.667-6.667-6.667"></path>
</symbol>
<symbol id="icon-chevron-down" viewBox="0 0 32 32">
<path stroke-linejoin="round" stroke-linecap="round" stroke-miterlimit="4" stroke-width="3.2" d="M8 12l8 8 8-8"></path>
</symbol>
<symbol id="icon-double_arrow_left" viewBox="0 0 32 32">
<path stroke-linejoin="round" stroke-linecap="round" stroke-miterlimit="4" stroke-width="1.92" d="M21.76 21.12l-5.12-5.12 5.12-5.12"></path>
<path stroke-linejoin="round" stroke-linecap="round" stroke-miterlimit="4" stroke-width="1.92" d="M16.64 21.12l-5.12-5.12 5.12-5.12"></path>
</symbol>
<symbol id="icon-double_arrow_right" viewBox="0 0 32 32">
<path stroke-linejoin="round" stroke-linecap="round" stroke-miterlimit="4" stroke-width="1.92" d="M10.88 21.12l5.12-5.12-5.12-5.12"></path>
<path stroke-linejoin="round" stroke-linecap="round" stroke-miterlimit="4" stroke-width="1.92" d="M16 21.12l5.12-5.12-5.12-5.12"></path>
</symbol>
<symbol id="icon-facebook_icon" viewBox="0 0 32 32">
<path d="M19.52 4.64c0.24 0 0.48 0 0.96 0v3.6c-0.24 0-0.72 0-1.2 0s-0.96 0-1.2 0.24c-0.24 0.24-0.24 0.48-0.24 1.040 0 0.48 0 0.8 0 1.28h2.64v3.040h-2.64v13.2h-4.080v-13.28h-2.16v-3.040h2.16v-1.040c0-1.76 0.24-3.040 0.72-3.6 0.72-1.040 2.16-1.52 4.32-1.52 0.24 0.080 0.48 0.080 0.72 0.080z"></path>
</symbol>
<symbol id="icon-heroicons-solid_shopping-cart" viewBox="0 0 32 32">
<path d="M4.8 1.6c-0.424 0-0.831 0.169-1.131 0.469s-0.469 0.707-0.469 1.131c0 0.424 0.169 0.831 0.469 1.131s0.707 0.469 1.131 0.469h1.952l0.488 1.955c0.005 0.022 0.010 0.045 0.016 0.067l2.173 8.688-1.429 1.427c-2.016 2.016-0.589 5.462 2.262 5.462h13.738c0.424 0 0.831-0.169 1.131-0.469s0.469-0.707 0.469-1.131c0-0.424-0.169-0.831-0.469-1.131s-0.707-0.469-1.131-0.469h-13.738l1.6-1.6h10.538c0.297-0 0.588-0.083 0.841-0.239s0.457-0.38 0.59-0.645l4.8-9.6c0.122-0.244 0.179-0.515 0.167-0.787s-0.094-0.537-0.237-0.769c-0.143-0.232-0.343-0.423-0.582-0.556s-0.506-0.203-0.779-0.203h-17.152l-0.496-1.989c-0.087-0.346-0.286-0.653-0.568-0.873s-0.628-0.339-0.984-0.339h-3.2zM25.6 26.4c0 0.637-0.253 1.247-0.703 1.697s-1.061 0.703-1.697 0.703c-0.637 0-1.247-0.253-1.697-0.703s-0.703-1.061-0.703-1.697c0-0.637 0.253-1.247 0.703-1.697s1.061-0.703 1.697-0.703c0.637 0 1.247 0.253 1.697 0.703s0.703 1.061 0.703 1.697zM10.4 28.8c0.637 0 1.247-0.253 1.697-0.703s0.703-1.061 0.703-1.697c0-0.637-0.253-1.247-0.703-1.697s-1.061-0.703-1.697-0.703c-0.636 0-1.247 0.253-1.697 0.703s-0.703 1.061-0.703 1.697c0 0.637 0.253 1.247 0.703 1.697s1.061 0.703 1.697 0.703z"></path>
</symbol>
<symbol id="icon-ic_baseline-search" viewBox="0 0 32 32">
<path d="M20.667 18.667h-1.053l-0.373-0.36c1.352-1.568 2.095-3.57 2.093-5.64 0-1.714-0.508-3.39-1.46-4.815s-2.306-2.536-3.89-3.192c-1.584-0.656-3.326-0.828-5.007-0.493s-3.225 1.16-4.437 2.372c-1.212 1.212-2.037 2.756-2.372 4.437s-0.163 3.424 0.493 5.007c0.656 1.584 1.767 2.937 3.192 3.89s3.101 1.46 4.815 1.46c2.147 0 4.12-0.787 5.64-2.093l0.36 0.373v1.053l6.667 6.653 1.987-1.987-6.653-6.667zM12.667 18.667c-3.32 0-6-2.68-6-6s2.68-6 6-6c3.32 0 6 2.68 6 6s-2.68 6-6 6z"></path>
</symbol>
<symbol id="icon-instagram" viewBox="0 0 32 32">
<path d="M28.718 10.756c-0.016-1.074-0.215-2.14-0.596-3.145-0.667-1.716-2.024-3.073-3.743-3.737-0.994-0.373-2.044-0.573-3.108-0.596-1.368-0.061-1.801-0.078-5.273-0.078s-3.916 0-5.274 0.078c-1.062 0.023-2.113 0.223-3.106 0.596-1.719 0.664-3.078 2.021-3.743 3.737-0.374 0.992-0.576 2.041-0.596 3.101-0.061 1.367-0.080 1.8-0.080 5.265s0 3.909 0.080 5.265c0.021 1.062 0.222 2.109 0.596 3.104 0.667 1.714 2.024 3.071 3.744 3.735 0.989 0.386 2.040 0.605 3.106 0.639 1.369 0.061 1.803 0.080 5.274 0.080s3.916 0 5.274-0.080c1.062-0.021 2.112-0.221 3.108-0.595 1.719-0.666 3.076-2.022 3.743-3.737 0.374-0.994 0.574-2.041 0.596-3.104 0.061-1.365 0.080-1.798 0.080-5.265-0.003-3.466-0.003-3.906-0.082-5.264zM15.99 22.531c-3.631 0-6.572-2.936-6.572-6.561s2.941-6.561 6.572-6.561c3.628 0 6.572 2.936 6.572 6.561s-2.944 6.561-6.572 6.561zM22.824 10.696c-0.849 0-1.532-0.684-1.532-1.53s0.684-1.53 1.532-1.53c0.846 0 1.531 0.684 1.531 1.53s-0.685 1.53-1.531 1.53z"></path>
<path d="M15.992 19.976c2.211 0 4.004-1.793 4.004-4.004s-1.793-4.004-4.004-4.004c-2.211 0-4.004 1.793-4.004 4.004s1.793 4.004 4.004 4.004z"></path>
</symbol>
<symbol id="icon-ion_close-sharp" viewBox="0 0 32 32">
<path d="M25 9.093l-2.093-2.093-6.907 6.907-6.907-6.907-2.093 2.093 6.907 6.907-6.907 6.907 2.093 2.093 6.907-6.907 6.907 6.907 2.093-2.093-6.907-6.907 6.907-6.907z"></path>
</symbol>
<symbol id="icon-mdi_leaf" viewBox="0 0 32 32">
<path d="M22.667 10.667c-12 2.667-14.8 10.893-17.573 17.787l2.52 0.88 1.267-3.067c0.64 0.227 1.307 0.4 1.787 0.4 14.667 0 18.667-22.667 18.667-22.667-1.333 2.667-10.667 3-17.333 4.333s-9.333 7-9.333 9.667c0 2.667 2.333 5 2.333 5 4.333-12.333 17.667-12.333 17.667-12.333z"></path>
</symbol>
<symbol id="icon-one_arrow_left" viewBox="0 0 32 32">
<path stroke-linejoin="round" stroke-linecap="round" stroke-miterlimit="4" stroke-width="2" d="M18.667 21.333l-5.333-5.333 5.333-5.333"></path>
</symbol>
<symbol id="icon-one_arrow_right" viewBox="0 0 32 32">
<path fill="none" stroke="#a3a3a3" style="stroke: var(--color1, #a3a3a3)" stroke-linejoin="round" stroke-linecap="round" stroke-miterlimit="4" stroke-width="1.92" d="M13.44 21.12l5.12-5.12-5.12-5.12"></path>
</symbol>
<symbol id="icon-tdesign_cabbage" viewBox="0 0 32 32">
<path d="M17.488 4.624c-0.463-0.704-1.086-1.289-1.817-1.707-2.011-1.153-4.601-0.951-6.992 0.388-4.439 2.487-7.345 7.161-7.345 12.695 0 7.387 5.347 13.351 12.329 14.48 0.763 0.123 1.543 0.187 2.337 0.187 1.937 0.007 3.857-0.372 5.647-1.113s3.415-1.832 4.779-3.207c1.365-1.375 2.442-3.008 3.17-4.804s1.092-3.718 1.070-5.655c-0.031-2.576-1.064-5.737-2.697-8.264-1.627-2.517-4.128-4.811-7.236-4.781-1.517 0.003-2.553 0.837-3.245 1.784v-0.001zM26.361 10.151c-0.557-0.090-1.123-0.104-1.684-0.044l-1.547-2.6-2.291 1.36 1.189 2c-0.498 0.234-0.973 0.513-1.42 0.833-0.008-0.026-0.016-0.052-0.024-0.077-0.356-1.080-1.044-1.967-1.961-2.848l0.005-0.027c0.092-0.431 0.239-0.987 0.459-1.527 0.497-1.221 1.075-1.716 1.653-1.716h0.015c1.721-0.019 3.515 1.303 4.975 3.561 0.227 0.351 0.437 0.712 0.632 1.083l-0.001 0.001zM18.147 14.147c-0.44 0.011-0.892 0.060-1.333 0.156-0.36-0.602-0.842-1.123-1.416-1.527-1.053-0.74-2.496-1.107-4.056-0.524-0.143-0.082-0.287-0.163-0.432-0.241l4.311-4.225-1.867-1.904-5.113 5.012c-1.080-0.313-2.089-0.425-2.996-0.3 1.043-2.094 2.696-3.824 4.74-4.963 1.819-1.019 3.383-0.963 4.361-0.401 0.933 0.535 1.708 1.748 1.513 3.916l-0.060 0.671 0.504 0.447c1.096 0.969 1.552 1.596 1.749 2.195 0.139 0.42 0.184 0.928 0.095 1.689zM14.4 15.487c-1.139 0.953-1.903 2.291-2.347 3.736l-3.965-4.353-1.972 1.797 5.451 5.984c-0.007 1.589 0.197 3.216 0.493 4.687-2.36-0.81-4.407-2.34-5.852-4.373s-2.218-4.469-2.208-6.964c0-1.387 0.385-2.143 0.839-2.473 0.428-0.315 1.368-0.572 3.293 0.139 0.696 0.257 1.501 0.652 2.423 1.225l0.669 0.416 0.688-0.387c0.831-0.467 1.465-0.301 1.952 0.040 0.213 0.149 0.396 0.336 0.536 0.527zM16.753 27.976l9.723-10.716-1.975-1.792-3.909 4.308 0.009-1.352-2.667-0.019-0.031 4.333-3.311 3.649c-0.251-1.361-0.4-2.824-0.352-4.196 0.085-2.34 1.020-4.263 2.403-5.024 0.573-0.316 1.585-0.44 2.385-0.299l1.187 0.207 0.327-1.159c0.171-0.604 0.623-1.251 1.329-1.827 0.717-0.579 1.551-0.996 2.445-1.221 1.068-0.261 1.979-0.125 2.579 0.288 0.524 0.36 1.051 1.096 1.1 2.605v0.024l0.004 0.213c0.013 3.056-1.145 6.001-3.237 8.229s-4.959 3.569-8.009 3.747z"></path>
</symbol>
<symbol id="icon-youtube_icon" viewBox="0 0 32 32">
<path d="M24.24 6c-1.36-0.080-4.16-0.16-8.4-0.16h-0.56c-4.080 0-6.8 0.080-8.16 0.24-1.84 0.16-3.12 0.64-3.84 1.28-0.64 0.56-1.12 1.6-1.28 2.96-0.080 0.88-0.16 2.72-0.16 5.52v0.4c0 2.64 0.080 4.48 0.24 5.36 0.24 1.28 0.64 2.24 1.44 2.8 0.8 0.64 2.16 1.040 4.080 1.2 1.36 0.080 4.16 0.16 8.4 0.16h0.56c4.080 0 6.8-0.080 8.16-0.24 1.84-0.16 3.12-0.64 3.84-1.28 0.64-0.56 1.12-1.6 1.28-2.96 0.080-0.88 0.16-2.72 0.16-5.52v-0.4c0-2.64-0.080-4.48-0.24-5.36-0.24-1.28-0.64-2.24-1.44-2.8-0.8-0.64-2.16-1.040-4.080-1.2zM21.12 15.84l-8.8 5.28v-10.56l8.8 5.28z"></path>
</symbol>
<symbol id="icon-Food-Boutique1" viewBox="0 0 227 32">
<path d="M0 22.964c1.711-0.209 2.653-0.977 2.653-2.339v-14.208c0-1.361-0.943-2.164-2.653-2.339v-1.396h17.734c0.314 0 0.454 0.105 0.489 0.349 0.105 1.047 0.175 2.095 0.733 4.643h-0.873c-1.222-2.129-2.269-3.247-4.329-3.247h-2.967c-1.571 0-2.234 0.873-2.234 2.269v3.665c0 1.396 0.663 2.164 2.234 2.164h1.396c2.828 0 3.351-0.663 3.631-2.234h0.768v6.214h-0.768c-0.279-1.466-0.803-2.199-3.631-2.199h-1.396c-1.571 0-2.234 0.768-2.234 2.164v4.154c0 1.361 0.943 2.129 3.002 2.339v1.396h-11.555v-1.396z"></path>
<path d="M27.766 24.57c-4.294 0-8.657-2.583-8.657-8.239 0-5.62 4.364-8.029 8.553-8.029 4.329 0 8.657 2.583 8.657 8.239 0 5.62-4.329 8.029-8.553 8.029zM24.694 14.796c0 4.329 1.431 8.169 3.665 8.169 1.361 0 2.374-1.361 2.374-4.957 0-4.294-1.361-8.134-3.665-8.134-1.396 0-2.374 1.396-2.374 4.922z"></path>
<path d="M46.534 24.57c-4.294 0-8.657-2.583-8.657-8.239 0-5.62 4.364-8.029 8.553-8.029 4.329 0 8.657 2.583 8.657 8.239 0 5.62-4.329 8.029-8.553 8.029zM43.462 14.796c0 4.329 1.431 8.169 3.665 8.169 1.361 0 2.374-1.361 2.374-4.957 0-4.294-1.361-8.134-3.665-8.134-1.396 0-2.374 1.396-2.374 4.922z"></path>
<path d="M63.312 24.57c-3.281 0-6.668-2.688-6.668-7.855 0-5.551 3.805-8.413 7.505-8.413 3.84 0 4.852 3.002 4.852-0.524v-2.095c0-1.641-0.908-1.92-2.199-1.815v-1.361l5.69-0.943c1.187-0.175 1.745 0.349 1.745 1.396v17.839c0 1.152 0.454 1.92 1.466 1.501v0.768c-0.489 1.187-1.745 1.501-2.828 1.501-1.187 0-2.688-0.384-3.107-1.431-0.279-0.663-0.593-1.012-1.117-1.012-0.698 0-2.095 2.444-5.341 2.444zM62.264 14.9c0 3.456 1.536 6.842 3.77 6.842 1.361 0 2.967-0.977 2.967-3.91v-1.641c0-4.538-2.129-6.319-3.875-6.319-1.78 0-2.863 2.199-2.863 5.027z"></path>
<path d="M83.032 22.964c1.711-0.209 2.653-0.977 2.653-2.339v-14.173c0-1.396-0.943-2.199-2.653-2.374v-1.396h10.787c6.842 0 10.228 1.641 10.228 5.167 0 1.99-1.152 3.945-5.132 4.573 4.468 0.628 6.388 2.723 6.388 5.69 0 4.049-3.596 6.249-8.483 6.249-2.793 0-8.727-0.873-13.789 0v-1.396zM91.585 21.149c0 0.908 0.559 1.327 1.571 1.327h1.222c2.653 0 4.643-1.012 4.643-4.399 0-3.281-2.025-4.713-5.865-4.713-0.908 0-1.571 0.698-1.571 2.095v5.69zM91.585 9.594c0 1.396 0.663 2.095 2.234 2.095h0.908c2.409 0 3.037-1.885 3.037-3.491 0-2.444-1.327-3.805-3.596-3.805h-0.349c-1.571 0-2.234 0.733-2.234 2.129v3.072z"></path>
<path d="M115.537 24.57c-4.294 0-8.657-2.583-8.657-8.239 0-5.62 4.364-8.029 8.553-8.029 4.329 0 8.657 2.583 8.657 8.239 0 5.62-4.329 8.029-8.553 8.029zM112.465 14.796c0 4.329 1.431 8.169 3.665 8.169 1.361 0 2.374-1.361 2.374-4.957 0-4.294-1.361-8.134-3.665-8.134-1.396 0-2.374 1.396-2.374 4.922z"></path>
<path d="M131.677 24.57c-2.444 0-5.097-1.012-5.097-6.493v-5.551c0-1.606-0.908-1.885-2.199-1.85v-1.361l5.69-0.943c1.187-0.175 1.745 0.349 1.745 1.396v7.471c0 2.444 1.012 4.189 2.897 4.189 1.92 0 2.897-1.745 2.897-4.189v-4.713c0-1.606-0.908-1.885-2.199-1.85v-1.361l5.655-0.943c1.222-0.175 1.78 0.349 1.78 1.396v11.031c0 1.152 0.454 1.92 1.466 1.501v0.768c-0.489 1.187-1.745 1.501-2.932 1.501-2.513 0-3.212-1.571-3.386-2.339-0.105-0.489-0.384-0.733-0.628-0.733s-0.419 0.209-0.593 0.454c-0.977 1.327-2.339 2.618-5.097 2.618z"></path>
<path d="M152.495 24.535c-3.212 0-5.167-1.78-5.167-5.167v-7.645c0-1.222-0.279-1.466-1.082-1.466h-1.571v-1.117c2.897-0.663 4.294-1.99 5.481-3.91 0.279-0.454 0.524-0.593 0.977-0.593h0.628c0.524 0 0.838 0.314 0.838 0.838l-0.035 2.164c0 0.768 0.384 0.977 2.164 0.977h2.269v1.85l-2.269-0.14c-1.78-0.105-2.164 0.209-2.164 1.466v7.401c0 1.92 0.209 3.212 1.92 3.212 0.454 0 1.152-0.070 1.815-0.559 0.454 0.559 0.628 1.047 0.175 1.466-0.803 0.698-2.234 1.222-3.98 1.222z"></path>
<path d="M158.406 22.999c1.606-0.105 2.199-0.628 2.199-2.513v-7.994c0-1.641-0.908-1.92-2.164-1.815v-1.361l5.655-0.943c1.187-0.175 1.745 0.349 1.745 1.396v10.717c0 1.885 0.593 2.409 2.164 2.513v1.361h-9.6v-1.361zM159.767 3.974c0-1.676 1.396-2.967 3.037-2.967 1.606 0 2.967 1.292 2.967 2.967s-1.361 2.967-2.967 2.967c-1.641 0-3.037-1.292-3.037-2.967z"></path>
<path d="M178.431 29.667c1.99-0.14 2.583-0.663 2.583-2.409v-3.735c0-0.628-0.314-0.838-0.628-0.838-0.175 0-0.349 0.070-0.489 0.209-0.698 0.698-2.199 1.676-4.399 1.676-3.596 0-6.912-2.653-6.912-7.785 0-5.585 3.875-8.483 7.889-8.483 3.491 0 4.957 2.129 6.249 2.129 1.222 0 1.711-2.095 2.688-2.095 0.628 0 0.838 0.349 0.838 0.838v18.083c0 1.745 0.593 2.269 2.164 2.409v1.327h-9.984v-1.327zM174.207 14.865c0 3.456 1.466 6.877 3.91 6.877 1.327 0 2.863-0.977 2.897-4.887-0.035-5.236-2.199-6.982-3.945-6.982-1.885 0-2.863 2.199-2.863 4.992z"></path>
<path d="M195.191 24.57c-2.444 0-5.097-1.012-5.097-6.493v-5.551c0-1.606-0.908-1.885-2.199-1.85v-1.361l5.69-0.943c1.187-0.175 1.745 0.349 1.745 1.396v7.471c0 2.444 1.012 4.189 2.897 4.189 1.92 0 2.897-1.745 2.897-4.189v-4.713c0-1.606-0.908-1.885-2.199-1.85v-1.361l5.655-0.943c1.222-0.175 1.78 0.349 1.78 1.396v11.031c0 1.152 0.454 1.92 1.466 1.501v0.768c-0.489 1.187-1.745 1.501-2.932 1.501-2.513 0-3.212-1.571-3.386-2.339-0.105-0.489-0.384-0.733-0.628-0.733s-0.419 0.209-0.593 0.454c-0.977 1.327-2.339 2.618-5.097 2.618z"></path>
<path d="M217.917 24.57c-4.364 0-8.692-2.513-8.692-7.994 0-5.725 4.678-8.273 9.007-8.273 3.7 0 6.703 1.85 6.703 4.922 0 3.142-3.037 3.316-6.109 3.561l-2.723 0.209c-0.593 0.035-0.908 0.314-0.908 1.117 0 2.583 2.793 3.735 5.097 3.735 1.222 0 2.897-0.349 4.154-1.78l1.047 0.943c-0.663 1.361-3.491 3.561-7.575 3.561zM214.95 14.132c0 1.012 0.244 1.536 1.152 1.501l1.257-0.14c2.409-0.244 2.897-0.873 2.897-2.234 0-1.676-0.698-3.351-2.513-3.351-2.269 0-2.793 2.548-2.793 4.224z"></path>
</symbol>
<symbol id="icon-Vector-338" viewBox="0 0 5360 32">
<path stroke-linejoin="miter" stroke-linecap="butt" stroke-miterlimit="4" stroke-width="16" d="M0 16h5360"></path>
</symbol>
</defs>
</svg>
