<svg width="34" height="34" viewBox="0 0 34 34" fill="none" xmlns="http://www.w3.org/2000/svg">
    <rect width="34" height="34" rx="17" fill="#6D8434" />
    <path
        d="M10.7 8.90002C10.4614 8.90002 10.2324 8.99485 10.0637 9.16363C9.89487 9.33241 9.80005 9.56133 9.80005 9.80002C9.80005 10.0387 9.89487 10.2676 10.0637 10.4364C10.2324 10.6052 10.4614 10.7 10.7 10.7H11.798L12.0725 11.7998C12.0753 11.8125 12.0783 11.8251 12.0815 11.8376L13.3037 16.7246L12.5 17.5274C11.366 18.6614 12.1688 20.6 13.7726 20.6H21.5C21.7387 20.6 21.9677 20.5052 22.1364 20.3364C22.3052 20.1676 22.4 19.9387 22.4 19.7C22.4 19.4613 22.3052 19.2324 22.1364 19.0636C21.9677 18.8948 21.7387 18.8 21.5 18.8H13.7726L14.6726 17.9H20.6C20.7671 17.8999 20.9309 17.8533 21.073 17.7654C21.2151 17.6775 21.33 17.5518 21.4046 17.4023L24.1046 12.0023C24.1732 11.8651 24.2056 11.7127 24.1987 11.5595C24.1918 11.4063 24.1458 11.2574 24.0652 11.127C23.9846 10.9965 23.872 10.8888 23.7381 10.8141C23.6042 10.7394 23.4534 10.7001 23.3 10.7H13.652L13.373 9.58132C13.3243 9.3867 13.2119 9.21395 13.0537 9.09051C12.8956 8.96708 12.7007 8.90003 12.5 8.90002H10.7ZM22.4 22.85C22.4 23.2081 22.2578 23.5514 22.0046 23.8046C21.7515 24.0578 21.4081 24.2 21.05 24.2C20.692 24.2 20.3486 24.0578 20.0955 23.8046C19.8423 23.5514 19.7 23.2081 19.7 22.85C19.7 22.492 19.8423 22.1486 20.0955 21.8954C20.3486 21.6423 20.692 21.5 21.05 21.5C21.4081 21.5 21.7515 21.6423 22.0046 21.8954C22.2578 22.1486 22.4 22.492 22.4 22.85ZM13.85 24.2C14.2081 24.2 14.5515 24.0578 14.8046 23.8046C15.0578 23.5514 15.2 23.2081 15.2 22.85C15.2 22.492 15.0578 22.1486 14.8046 21.8954C14.5515 21.6423 14.2081 21.5 13.85 21.5C13.492 21.5 13.1486 21.6423 12.8955 21.8954C12.6423 22.1486 12.5 22.492 12.5 22.85C12.5 23.2081 12.6423 23.5514 12.8955 23.8046C13.1486 24.0578 13.492 24.2 13.85 24.2Z"
        fill="#E8E8E2" />
</svg>