<svg width="28" height="28" viewBox="0 0 28 28" fill="none" xmlns="http://www.w3.org/2000/svg">
    <circle cx="14" cy="14" r="14" fill="#6D8434" />
    <path
        d="M14.7433 8.31191C14.5117 7.96 14.2004 7.66765 13.8347 7.45858C12.8293 6.88191 11.534 6.98324 10.3387 7.65258C8.11935 8.89591 6.66602 11.2332 6.66602 13.9999C6.66602 17.6932 9.33935 20.6752 12.8307 21.2399C13.212 21.3012 13.602 21.3332 13.9993 21.3332C14.9681 21.3367 15.9279 21.1474 16.8229 20.7766C17.7178 20.4057 18.5301 19.8606 19.2125 19.1729C19.8949 18.4852 20.4338 17.6688 20.7977 16.771C21.1617 15.8732 21.3436 14.912 21.3327 13.9432C21.3173 12.6552 20.8007 11.0746 19.984 9.81124C19.1707 8.55258 17.92 7.40591 16.366 7.42058C15.6073 7.42191 15.0893 7.83924 14.7433 8.31258V8.31191ZM19.18 11.0752C18.9016 11.0305 18.6184 11.0231 18.338 11.0532L17.5647 9.75324L16.4193 10.4332L17.014 11.4332C16.7652 11.5503 16.5276 11.6898 16.304 11.8499C16.3001 11.837 16.2961 11.8241 16.292 11.8112C16.114 11.2712 15.77 10.8279 15.3113 10.3872L15.314 10.3739C15.36 10.1586 15.4333 9.88058 15.5433 9.61058C15.792 8.99991 16.0807 8.75258 16.37 8.75258H16.3773C17.238 8.74324 18.1347 9.40391 18.8647 10.5332C18.978 10.7086 19.0833 10.8892 19.1807 11.0746L19.18 11.0752ZM15.0727 13.0732C14.8527 13.0786 14.6267 13.1032 14.406 13.1512C14.2261 12.85 13.9849 12.59 13.698 12.3879C13.1713 12.0179 12.45 11.8346 11.67 12.1259C11.5986 12.0847 11.5265 12.0445 11.454 12.0052L13.6093 9.89258L12.676 8.94058L10.1193 11.4466C9.57935 11.2899 9.07468 11.2339 8.62135 11.2966C9.14304 10.2494 9.96919 9.38442 10.9913 8.81524C11.9007 8.30591 12.6827 8.33391 13.172 8.61458C13.6387 8.88191 14.026 9.48858 13.9287 10.5726L13.8987 10.9079L14.1507 11.1312C14.6987 11.6159 14.9267 11.9292 15.0253 12.2286C15.0947 12.4386 15.1173 12.6926 15.0727 13.0732ZM13.1993 13.7432C12.63 14.2199 12.248 14.8886 12.026 15.6112L10.0433 13.4346L9.05735 14.3332L11.7827 17.3252C11.7793 18.1199 11.8813 18.9332 12.0293 19.6686C10.8494 19.2635 9.82608 18.4988 9.10322 17.482C8.38036 16.4652 7.99432 15.2475 7.99935 13.9999C7.99935 13.3066 8.19202 12.9286 8.41868 12.7632C8.63268 12.6059 9.10268 12.4772 10.0653 12.8326C10.4133 12.9612 10.816 13.1586 11.2767 13.4452L11.6113 13.6532L11.9553 13.4599C12.3707 13.2266 12.688 13.3092 12.9313 13.4799C13.038 13.5546 13.1293 13.6479 13.1993 13.7432ZM14.376 19.9879L19.2373 14.6299L18.25 13.7339L16.2953 15.8879L16.3 15.2119L14.9667 15.2026L14.9513 17.3692L13.296 19.1939C13.1707 18.5132 13.096 17.7819 13.12 17.0959C13.1627 15.9259 13.63 14.9646 14.3213 14.5839C14.608 14.4259 15.114 14.3639 15.514 14.4346L16.1073 14.5379L16.2707 13.9586C16.356 13.6566 16.582 13.3332 16.9353 13.0452C17.2938 12.7555 17.711 12.5471 18.158 12.4346C18.692 12.3039 19.1474 12.3719 19.4473 12.5786C19.7093 12.7586 19.9727 13.1266 19.9973 13.8812V13.8932L19.9993 13.9999C20.006 15.5279 19.4268 17.0004 18.3807 18.1143C17.3347 19.2282 15.9015 19.8987 14.376 19.9879Z"
        fill="#E8E8E2" />
</svg>